<svg width="54" height="124" viewBox="0 0 54 124" fill="none" xmlns="http://www.w3.org/2000/svg">
<mask id="path-1-outside-1_150_12" maskUnits="userSpaceOnUse" x="-10" y="-10" width="74" height="144" fill="black">
<rect fill="white" x="-10" y="-10" width="74" height="144"/>
<path d="M0.109376 49.2V15.2L23.5094 0.399995H53.5094L53.9094 123.2H23.5094V35H22.5094L1.10938 49.2H0.109376Z"/>
</mask>
<path d="M0.109376 49.2V15.2L23.5094 0.399995H53.5094L53.9094 123.2H23.5094V35H22.5094L1.10938 49.2H0.109376Z" fill="#13131F"/>
<path d="M0.109376 49.2V15.2L23.5094 0.399995H53.5094L53.9094 123.2H23.5094V35H22.5094L1.10938 49.2H0.109376Z" fill="black" fill-opacity="0.2"/>
<path d="M0.109376 49.2H-9.89062V59.2H0.109376V49.2ZM0.109376 15.2L-5.23599 6.74854L-9.89062 9.6925V15.2H0.109376ZM23.5094 0.399994V-9.60001H20.6124L18.164 -8.05146L23.5094 0.399994ZM53.5094 0.399994L63.5093 0.367422L63.4769 -9.60001H53.5094V0.399994ZM53.9094 123.2V133.2H63.942L63.9093 123.167L53.9094 123.2ZM23.5094 123.2H13.5094V133.2H23.5094V123.2ZM23.5094 35H33.5094V25H23.5094V35ZM22.5094 35V25H19.4934L16.9804 26.6675L22.5094 35ZM1.10938 49.2V59.2H4.12535L6.63839 57.5325L1.10938 49.2ZM10.1094 49.2V15.2H-9.89062V49.2H10.1094ZM5.45474 23.6514L28.8547 8.85145L18.164 -8.05146L-5.23599 6.74854L5.45474 23.6514ZM23.5094 10.4H53.5094V-9.60001H23.5094V10.4ZM43.5094 0.432568L43.9094 123.233L63.9093 123.167L63.5093 0.367422L43.5094 0.432568ZM53.9094 113.2H23.5094V133.2H53.9094V113.2ZM33.5094 123.2V35H13.5094V123.2H33.5094ZM23.5094 25H22.5094V45H23.5094V25ZM16.9804 26.6675L-4.41964 40.8675L6.63839 57.5325L28.0384 43.3325L16.9804 26.6675ZM1.10938 39.2H0.109376V59.2H1.10938V39.2Z" fill="url(#paint0_linear_150_12)" mask="url(#path-1-outside-1_150_12)"/>
<defs>
<linearGradient id="paint0_linear_150_12" x1="30" y1="22" x2="30" y2="248" gradientUnits="userSpaceOnUse">
<stop stop-color="#7C6AF0"/>
<stop offset="0.402199" stop-color="#624BF6" stop-opacity="0.1"/>
<stop offset="0.441323" stop-color="#5E46F7" stop-opacity="0"/>
</linearGradient>
</defs>
</svg>
