<svg width="157" height="154" viewBox="0 0 157 154" fill="none" xmlns="http://www.w3.org/2000/svg">
<path d="M85.9971 103.295C84.8665 104.502 85.5401 105.165 85.3476 115.156C85.3476 116.482 86.4301 117.547 87.7772 117.547C89.1243 117.547 90.2068 116.482 90.2068 115.156V105.923C94.5128 101.874 104.857 96.4291 111.929 96.4291C121.527 96.4291 129.081 106.325 131.149 109.356C131.919 110.445 133.435 110.729 134.541 109.971C135.648 109.237 135.936 107.746 135.191 106.657C132.088 102.135 123.596 91.623 111.929 91.623C102.788 91.623 90.4474 98.5362 85.9731 103.295H85.9971Z" fill="#3240E9"/>
<path d="M97.544 119.939C78.4679 119.939 69.0382 134.854 68.6533 135.493C68.1722 136.251 68.1722 137.221 68.6533 137.979C69.0382 138.618 78.4679 153.534 97.544 153.534C116.62 153.534 126.05 138.618 126.435 137.979C126.723 137.506 126.844 136.985 126.771 136.44C126.723 136.156 115.562 119.939 97.544 119.939ZM112.17 139.139H119.314C106.974 152.089 87.8255 151.829 75.7737 139.139H102.427C103.774 139.139 104.857 138.074 104.857 136.748C104.857 135.422 103.774 134.357 102.427 134.357H75.7737C88.1142 121.406 107.262 121.667 119.314 134.357H112.17C110.823 134.357 109.74 135.422 109.74 136.748C109.74 138.074 110.823 139.139 112.17 139.139Z" fill="#3240E9"/>
<path d="M155.686 128.296C148.566 116.79 132.785 111.747 119.627 117.595C118.4 118.139 117.847 119.56 118.4 120.767C118.953 121.975 120.397 122.519 121.624 121.975C130.019 118.258 140.676 119.465 148.47 127.16H134.084C132.737 127.16 131.655 128.225 131.655 129.551C131.655 130.877 132.737 131.942 134.084 131.942H148.445C145.439 134.902 140.194 138.666 132.665 139.092C129.466 139.281 129.706 144.064 132.954 143.874C146.136 143.117 156.023 132.534 156.023 129.527C156.023 129.077 155.903 128.651 155.662 128.272L155.686 128.296Z" fill="#3240E9"/>
<path d="M60.9789 129.551H14.672V124.745H70.7454C72.0925 124.745 73.175 123.679 73.175 122.354C73.175 121.028 72.0925 119.962 70.7454 119.962H16.1634L23.4763 105.568H36.5866C37.9337 105.568 39.0162 104.502 39.0162 103.177C39.0162 101.851 37.9337 100.785 36.5866 100.785H24.3904C24.3182 31.8432 24.5347 35.939 24.222 35.134L15.8026 14.4419H31.7033C33.0504 14.4419 34.1329 13.3765 34.1329 12.0507C34.1329 10.7249 33.0504 9.65949 31.7033 9.65949H14.6479V4.85342H102.403V9.65949H51.2123C49.8652 9.65949 48.7827 10.7249 48.7827 12.0507C48.7827 13.3765 49.8652 14.4419 51.2123 14.4419H103.196L110.99 33.6425H104.832C103.485 33.6425 102.403 34.7079 102.403 36.0337C102.403 37.3595 103.485 38.4249 104.832 38.4249H112.145V83.9997C112.145 85.3255 113.227 86.3909 114.575 86.3909C115.922 86.3909 117.004 85.3255 117.004 83.9997C117.004 33.2163 117.1 35.7259 116.812 35.0867L107.262 11.5772V2.3912C107.262 1.06538 106.179 0 104.832 0H12.2424C10.8953 0 9.81275 1.06538 9.81275 2.3912V11.5298C-0.194348 36.2704 0.0221509 35.134 0.0221509 35.9863C0.118373 107.296 -0.218404 103.271 0.286762 104.218L9.7887 122.898V131.918C9.7887 133.244 10.8712 134.31 12.2183 134.31H60.9789C62.326 134.31 63.4085 133.244 63.4085 131.918C63.4085 130.593 62.326 129.527 60.9789 129.527V129.551ZM4.92948 102.585V36.4362L12.2424 18.443L19.5552 36.4362V102.585L12.2424 116.979L4.92948 102.585Z" fill="#FD5DC9"/>
<path d="M68.2924 100.762C69.6395 100.762 70.722 99.6964 70.722 98.3706V85.5149C77.0486 90.0369 86.8632 91.5521 93.9837 90.8419C95.5232 90.6998 96.8463 89.0662 95.7157 87.0302C93.286 82.6266 89.8221 78.8622 85.6123 76.0449C100.479 73.7484 108.297 65.32 107.166 61.674C106.829 60.5613 105.699 59.851 104.52 59.9931L90.1829 61.745C94.1761 54.7608 96.6538 47.0427 97.4958 39.0878C97.6401 37.762 96.6538 36.6019 95.3067 36.4599C94.8256 36.4125 94.3204 36.5072 93.9115 36.744C88.2103 39.7981 82.3167 46.1667 76.3028 55.7078C76.3028 43.5624 73.8973 35.2051 70.6498 25.8534C70.0725 23.3675 66.4641 23.3675 65.8868 25.8534C62.8558 34.5422 60.2097 42.9469 60.2338 55.7078C54.2199 46.1667 48.3022 39.7981 42.6251 36.744C41.4464 36.1047 39.9549 36.5309 39.3054 37.7147C39.0649 38.1408 38.9687 38.6143 39.0168 39.0878C39.8587 47.0427 42.3364 54.7608 46.3297 61.745L31.9926 59.9931C30.1884 59.78 27.5182 61.6266 30.886 66.1013C32.8586 68.7055 38.3192 74.1035 50.9243 76.0449C46.6183 78.8859 43.2987 82.6266 40.7488 87.1249C40.003 88.2376 40.3158 89.7291 41.4464 90.4394C41.7832 90.6525 42.144 90.7708 42.5529 90.8182C43.2024 90.8892 56.5773 92.0967 65.8146 85.4913V98.3469C65.8146 99.6727 66.8971 100.738 68.2442 100.738L68.2924 100.762ZM47.2438 86.1305C49.8899 82.6502 54.4845 78.2467 61.5087 76.7314C64.3472 76.1159 63.8902 71.9964 60.9795 71.9964C52.9209 71.9964 43.0581 70.5522 36.972 65.462L50.9243 67.1903C52.2714 67.356 53.4741 66.409 53.6425 65.1069C53.7147 64.4677 53.5463 63.8521 53.1374 63.3313C53.0652 63.2366 47.2919 55.8262 44.766 44.2017C49.0479 47.966 54.6529 54.8082 61.2441 67.1903C62.519 69.5578 66.1995 68.3978 65.8146 65.7461C64.3232 55.0923 65.1651 44.249 68.2683 33.9503C71.3955 44.249 72.2134 55.0923 70.722 65.7461C70.3371 68.3978 74.0416 69.5578 75.2925 67.1903C81.8837 54.8082 87.4887 47.966 91.7706 44.2017C89.2688 55.8262 83.4714 63.2602 83.3992 63.3313C82.5813 64.373 82.7497 65.8882 83.8082 66.6931C84.3133 67.0956 84.9628 67.2613 85.6123 67.1903L99.5646 65.462C93.4785 70.5522 83.6157 71.9964 75.5571 71.9964C72.6464 71.9964 72.2134 76.1159 75.0279 76.7314C82.0521 78.2467 86.6467 82.6739 89.2928 86.1305C83.9766 85.9411 74.9076 84.639 70.1927 78.4124C69.3989 77.347 67.8594 77.1339 66.7769 77.9152C66.5844 78.0572 66.416 78.223 66.2717 78.4124C61.5568 84.639 52.4879 85.9411 47.1716 86.1305H47.2438Z" fill="#B2E51A"/>
<path d="M41.4701 14.3945C42.812 14.3945 43.8997 13.3239 43.8997 12.0033C43.8997 10.6826 42.812 9.61206 41.4701 9.61206C40.1283 9.61206 39.0405 10.6826 39.0405 12.0033C39.0405 13.3239 40.1283 14.3945 41.4701 14.3945Z" fill="#FD5DC9"/>
<path d="M46.3536 105.544C47.6955 105.544 48.7832 104.473 48.7832 103.153C48.7832 101.832 47.6955 100.762 46.3536 100.762C45.0118 100.762 43.924 101.832 43.924 103.153C43.924 104.473 45.0118 105.544 46.3536 105.544Z" fill="#FD5DC9"/>
</svg>
