<svg width="97" height="156" viewBox="0 0 97 156" fill="none" xmlns="http://www.w3.org/2000/svg">
<path d="M30.5375 122.875H35.6401V127.897H30.5375V122.875Z" fill="#B2E51A"/>
<path d="M63.691 112.831H68.7936V117.853H63.691V112.831Z" fill="#B2E51A"/>
<path d="M35.6399 110.333H40.7425V115.355H35.6399V110.333Z" fill="#B2E51A"/>
<path d="M50.9212 102.787H56.0238V107.809H50.9212V102.787Z" fill="#B2E51A"/>
<path d="M53.4854 125.373H58.588V130.395H53.4854V125.373Z" fill="#B2E51A"/>
<path d="M25.4347 100.289H30.5373V105.311H25.4347V100.289Z" fill="#B2E51A"/>
<path d="M87.1894 65.0841C91.2453 64.8781 94.8826 62.3542 96.2432 58.5685C96.6358 57.5126 96.8189 56.3794 96.8451 55.2205C96.8451 49.6835 92.2658 45.1767 86.6399 45.1767H85.2792C87.8698 40.7728 86.6922 35.1843 82.5317 32.1454L94.0452 8.60673C94.647 7.37056 94.1237 5.87686 92.8939 5.25878L82.6625 0.262608C81.4326 -0.329722 79.9673 0.108087 79.2869 1.29275L70.8611 16.2298C69.4219 15.4829 67.8257 15.0966 66.2033 15.0708V13.7317C66.2033 10.7185 64.9997 7.80837 62.8016 5.67084C60.8391 3.73933 58.3532 2.4259 55.6318 1.91083L46.3425 0.0565804C44.9556 -0.226708 43.6211 0.674663 43.3333 2.01384C43.2286 2.55467 43.3071 3.12124 43.5426 3.63631L44.5631 5.61933L40.2194 6.34043C35.5616 7.08728 31.8459 10.5382 30.8254 15.0708H30.5375C24.9116 15.0708 20.3323 19.5777 20.3323 25.1147C20.3323 26.8659 20.8033 28.6172 21.693 30.1366H20.3323C14.7064 30.1366 10.1271 34.6435 10.1271 40.1805C10.1271 41.9317 10.5981 43.6829 11.4878 45.2024H10.1271C4.5012 45.2282 -0.0518876 49.7608 0.000446681 55.2978C0.0266138 59.9076 3.27134 63.8994 7.82443 64.9811L9.7608 80.3301H20.3062C21.693 80.3301 22.8705 81.4375 22.8444 82.8025C22.8444 87.026 26.3246 90.4512 30.6422 90.374C34.9598 90.2967 38.1522 86.7427 38.1522 82.6737V65.2901H50.8956V70.312H55.9982V65.2901H83.4475C83.6307 65.2901 83.8139 65.2901 83.997 65.2901L87.1633 65.1098L87.1894 65.0841ZM82.584 5.82536L88.3669 8.65824L77.8216 30.2396C77.3767 30.1624 76.9057 30.1109 76.4609 30.1109H75.1002C77.0366 26.8402 76.9057 22.7969 74.8123 19.6292L82.6102 5.7996L82.584 5.82536ZM41.0567 11.2851L48.8022 10.0232C50.189 9.79139 51.1311 8.50372 50.8956 7.13878C50.8432 6.88125 50.7647 6.64947 50.6601 6.44344L50.4507 6.00563L54.6898 6.82974C56.4168 7.16454 58.013 8.0144 59.2429 9.22481C60.4727 10.4095 61.1531 12.0319 61.1531 13.7317V15.0708H36.1896C37.0531 13.0621 38.8848 11.6456 41.0567 11.2851ZM30.5375 20.0928H66.2557C69.0817 20.0928 71.3583 22.3333 71.3583 25.1147C71.3583 27.8961 69.0817 30.1366 66.2557 30.1366H30.5375C27.7115 30.1366 25.4349 27.8961 25.4349 25.1147C25.4349 22.3333 27.7115 20.0928 30.5375 20.0928ZM33.0757 82.854C33.0757 84.2446 31.9244 85.3521 30.5375 85.3521C29.1507 85.3521 27.9993 84.2189 27.9993 82.854C27.9993 78.7076 24.5714 75.334 20.3585 75.334H14.3139L13.0317 65.2901H33.1019V82.854H33.0757ZM86.6399 60.2682H10.1271C7.30108 60.2682 5.02454 58.0276 5.02454 55.2463C5.02454 52.4649 7.30108 50.2243 10.1271 50.2243H30.3282V45.2024H20.3323C17.5063 45.2024 15.2297 42.9619 15.2297 40.1805C15.2297 37.3991 17.5063 35.1586 20.3323 35.1586H76.4347C79.2608 35.1586 81.5373 37.3991 81.5373 40.1805C81.5373 42.9619 79.2608 45.2024 76.4347 45.2024H44.5108V50.2243H86.6137C89.4398 50.2243 91.7163 52.4649 91.7163 55.2463C91.7163 58.0276 89.4398 60.2682 86.6137 60.2682H86.6399Z" fill="#FD5DC9"/>
<path d="M81.2756 84.7855C78.3711 83.6524 76.4347 80.8968 76.4347 77.8063C76.4347 73.66 73.0068 70.2863 68.7939 70.2863C64.581 70.2863 61.1531 73.66 61.1531 77.8063C61.1531 79.197 60.0017 80.3044 58.6148 80.3044C57.228 80.3044 56.0766 79.1713 56.0766 77.8063V75.3083H50.974V77.8063C50.974 81.9526 54.4019 85.3264 58.6148 85.3264C62.8278 85.3264 66.2557 81.9526 66.2557 77.8063C66.2557 76.4157 67.407 75.3083 68.7939 75.3083C70.1807 75.3083 71.3321 76.4414 71.3321 77.8063C71.3321 83.4206 75.1263 88.3395 80.6214 89.859L74.1843 140.568H22.5827L15.5699 85.3521H10.4149L17.7679 143.4C17.9249 144.662 19.0239 145.615 20.3061 145.589H22.8443V153.109C22.8443 154.5 23.9957 155.608 25.3826 155.608H71.2798C72.6928 155.608 73.818 154.474 73.818 153.109V145.589H76.3562C77.6384 145.589 78.7374 144.637 78.8944 143.4L88.2884 69.9H83.1335L81.1971 84.7855H81.2756ZM33.0757 150.611H27.9731V145.589H33.0757V150.611ZM68.7939 150.611H38.1783V145.589H68.7939V150.611Z" fill="#3240E9"/>
</svg>
