<svg width="133" height="131" viewBox="0 0 133 131" fill="none" xmlns="http://www.w3.org/2000/svg">
<path d="M130.668 0H115.157C113.925 0 112.935 0.974422 112.935 2.18704C112.935 5.80322 109.964 8.72649 106.29 8.72649C102.616 8.72649 99.6455 5.80322 99.6455 2.18704C99.6455 0.974422 98.6554 0 97.4233 0H88.5567C87.3246 0 86.3345 0.974422 86.3345 2.18704C86.3345 5.80322 83.3643 8.72649 79.69 8.72649C76.0157 8.72649 73.0455 5.80322 73.0455 2.18704C73.0455 0.974422 72.0554 0 70.8233 0H61.9567C60.7246 0 59.7345 0.974422 59.7345 2.18704C59.7345 5.80322 56.7643 8.72649 53.09 8.72649C49.4157 8.72649 46.4455 5.80322 46.4455 2.18704C46.4455 0.974422 45.4554 0 44.2233 0H35.3567C34.1246 0 33.1345 0.974422 33.1345 2.18704C33.1345 5.80322 30.1643 8.72649 26.49 8.72649C22.8157 8.72649 19.8455 5.80322 19.8455 2.18704C19.8455 0.974422 18.8554 0 17.6233 0H2.22217C0.990074 0 0 0.974422 0 2.18704V17.453C0 18.6656 0.990074 19.64 2.22217 19.64C5.89644 19.64 8.86667 22.5633 8.86667 26.1795C8.86667 29.7957 5.89644 32.7189 2.22217 32.7189C0.990074 32.7189 0 33.6933 0 34.906V43.6324C0 44.8451 0.990074 45.8195 2.22217 45.8195C5.89644 45.8195 8.86667 48.7427 8.86667 52.3589C8.86667 55.9751 5.89644 58.8984 2.22217 58.8984C0.990074 58.8984 0 59.8728 0 61.0854V69.8119C0 71.0245 0.990074 71.9989 2.22217 71.9989C5.89644 71.9989 8.86667 74.9222 8.86667 78.5384C8.86667 82.1546 5.89644 85.0779 2.22217 85.0779C0.990074 85.0779 0 86.0523 0 87.2649V95.9914C0 97.204 0.990074 98.1784 2.22217 98.1784C5.89644 98.1784 8.86667 101.102 8.86667 104.718C8.86667 108.334 5.89644 111.257 2.22217 111.257C0.990074 111.257 0 112.232 0 113.444V128.71C0 129.923 0.990074 130.897 2.22217 130.897H17.7333C18.9654 130.897 19.9555 129.923 19.9555 128.71C19.9555 125.094 22.9257 122.171 26.6 122.171C30.2743 122.171 33.2445 125.094 33.2445 128.71C33.2445 129.923 34.2346 130.897 35.4667 130.897H44.3333C45.5654 130.897 46.5555 129.923 46.5555 128.71C46.5555 125.094 49.5257 122.171 53.2 122.171C56.8743 122.171 59.8445 125.094 59.8445 128.71C59.8445 129.923 60.8346 130.897 62.0667 130.897H70.9333C72.1654 130.897 73.1555 129.923 73.1555 128.71C73.1555 125.094 76.1257 122.171 79.8 122.171C83.4743 122.171 86.4445 125.094 86.4445 128.71C86.4445 129.923 87.4346 130.897 88.6667 130.897H97.5333C98.7654 130.897 99.7555 129.923 99.7555 128.71C99.7555 125.094 102.726 122.171 106.4 122.171C110.074 122.171 113.045 125.094 113.045 128.71C113.045 129.923 114.035 130.897 115.267 130.897H130.778C132.01 130.897 133 129.923 133 128.71V113.444C133 112.232 132.01 111.257 130.778 111.257C127.104 111.257 124.133 108.334 124.133 104.718C124.133 101.102 127.104 98.1784 130.778 98.1784C132.01 98.1784 133 97.204 133 95.9914V87.2649C133 86.0523 132.01 85.0779 130.778 85.0779C127.104 85.0779 124.133 82.1546 124.133 78.5384C124.133 74.9222 127.104 71.9989 130.778 71.9989C132.01 71.9989 133 71.0245 133 69.8119V61.0854C133 59.8728 132.01 58.8984 130.778 58.8984C127.104 58.8984 124.133 55.9751 124.133 52.3589C124.133 48.7427 127.104 45.8195 130.778 45.8195C132.01 45.8195 133 44.8451 133 43.6324V34.906C133 33.6933 132.01 32.7189 130.778 32.7189C127.104 32.7189 124.133 29.7957 124.133 26.1795C124.133 22.5633 127.104 19.64 130.778 19.64C132.01 19.64 133 18.6656 133 17.453V2.18704C133 0.974422 132.01 0 130.778 0H130.668ZM128.446 15.4825C123.275 16.5219 119.579 20.9825 119.579 26.1578C119.579 31.3331 123.297 35.8154 128.446 36.8331V41.6186C123.275 42.658 119.579 47.1187 119.579 52.294C119.579 57.4692 123.297 61.9516 128.446 62.9693V67.7548C123.275 68.7942 119.579 73.2549 119.579 78.4301C119.579 83.6054 123.297 88.0877 128.446 89.1055V93.891C123.275 94.9303 119.579 99.391 119.579 104.566C119.579 109.742 123.297 114.224 128.446 115.242V126.35H117.159C116.103 121.261 111.57 117.624 106.312 117.624C101.054 117.624 96.4993 121.283 95.4652 126.35H90.6028C89.5467 121.261 85.0144 117.624 79.756 117.624C74.4976 117.624 69.9433 121.283 68.9092 126.35H64.0468C62.9907 121.261 58.4584 117.624 53.2 117.624C47.9416 117.624 43.3873 121.283 42.3532 126.35H37.4908C36.4347 121.261 31.9024 117.624 26.644 117.624C21.3856 117.624 16.8313 121.283 15.7972 126.35H4.42233V115.242C9.59272 114.202 13.289 109.742 13.289 104.566C13.289 99.391 9.57072 94.9087 4.42233 93.891V89.1055C9.59272 88.0661 13.289 83.6054 13.289 78.4301C13.289 73.2549 9.57072 68.7725 4.42233 67.7548V62.9693C9.59272 61.9299 13.289 57.4692 13.289 52.294C13.289 47.1187 9.57072 42.6364 4.42233 41.6186V36.8331C9.59272 35.7938 13.289 31.3331 13.289 26.1578C13.289 20.9825 9.57072 16.5002 4.42233 15.4825V4.35242H15.7092C16.7653 9.44106 21.2976 13.0789 26.556 13.0789C31.8144 13.0789 36.3687 9.41941 37.4028 4.35242H42.2652C43.3213 9.44106 47.8536 13.0789 53.112 13.0789C58.3704 13.0789 62.9247 9.41941 63.9588 4.35242H68.8212C69.8773 9.44106 74.4096 13.0789 79.668 13.0789C84.9264 13.0789 89.4807 9.41941 90.5148 4.35242H95.3772C96.4333 9.44106 100.966 13.0789 106.224 13.0789C111.482 13.0789 116.037 9.41941 117.071 4.35242H128.358V15.4608L128.446 15.4825Z" fill="#FD5DC9"/>
<path d="M66.4451 21.8053C41.9792 21.8053 22.1557 41.3154 22.1557 65.3944C22.1557 89.4735 41.9792 108.984 66.4451 108.984C90.9109 108.984 110.734 89.4735 110.734 65.3944C110.712 41.337 90.8889 21.827 66.4451 21.8053ZM66.4451 104.631C44.4214 104.631 26.5781 87.0699 26.5781 65.3944C26.5781 43.719 44.4214 26.1577 66.4451 26.1577C88.4687 26.1577 106.312 43.719 106.312 65.3944C106.29 87.0482 88.4467 104.609 66.4451 104.631Z" fill="#3240E9"/>
<path d="M93.2212 63.2075C92.6271 63.1425 92.0551 63.3158 91.5931 63.6839C91.131 64.052 90.867 64.5933 90.801 65.1563C90.713 66.0658 88.5128 87.1783 66.4232 87.1783C44.3335 87.1783 42.1334 66.0658 42.0673 65.178C41.9573 63.9654 40.8793 63.0776 39.6472 63.2075C38.4151 63.3374 37.513 64.3768 37.645 65.5894C37.689 65.8493 40.3512 91.5523 66.4452 91.5523C92.5391 91.5523 95.2013 65.8493 95.2453 65.5894C95.3113 65.0048 95.1133 64.4418 94.7393 63.987C94.3653 63.5323 93.8152 63.2508 93.2212 63.2075Z" fill="#B2E51A"/>
<path d="M55.3561 63.2075C60.2404 63.2075 64.2227 59.3098 64.2227 54.481C64.2227 49.6522 60.2624 45.7545 55.3561 45.7545C50.4497 45.7545 46.4894 49.6522 46.4894 54.481C46.4894 59.3098 50.4497 63.2075 55.3561 63.2075ZM55.3561 50.1286C57.7983 50.1286 59.7784 52.0774 59.7784 54.481C59.7784 56.8846 57.7983 58.8334 55.3561 58.8334C52.9139 58.8334 50.9337 56.8846 50.9337 54.481C50.9337 52.0774 52.9139 50.1286 55.3561 50.1286Z" fill="#B2E51A"/>
<path d="M77.5118 63.2075C82.3962 63.2075 86.3785 59.3098 86.3785 54.481C86.3785 49.6522 82.4182 45.7545 77.5118 45.7545C72.6054 45.7545 68.6451 49.6522 68.6451 54.481C68.6451 59.3098 72.6054 63.2075 77.5118 63.2075ZM77.5118 50.1286C79.954 50.1286 81.9341 52.0774 81.9341 54.481C81.9341 56.8846 79.954 58.8334 77.5118 58.8334C75.0696 58.8334 73.0895 56.8846 73.0895 54.481C73.0895 52.0774 75.0696 50.1286 77.5118 50.1286Z" fill="#B2E51A"/>
<path d="M26.5779 21.8053C27.81 21.8053 28.8001 20.8309 28.8001 19.6183C28.8001 18.4057 27.81 17.4313 26.5779 17.4313H22.1556C20.9235 17.4313 19.9334 18.4057 19.9334 19.6183C19.9334 20.8309 20.9235 21.8053 22.1556 21.8053H26.5779Z" fill="#FBF70F"/>
<path d="M26.5779 28.3449C26.5779 29.5575 27.568 30.5319 28.8001 30.5319H31.0223C32.2543 30.5319 33.2444 29.5575 33.2444 28.3449C33.2444 27.1323 32.2543 26.1578 31.0223 26.1578H28.8001C27.568 26.1578 26.5779 27.1323 26.5779 28.3449Z" fill="#FBF70F"/>
<path d="M108.512 102.444C108.512 101.232 107.522 100.257 106.29 100.257H101.868C100.636 100.257 99.6456 101.232 99.6456 102.444C99.6456 103.657 100.636 104.631 101.868 104.631H106.29C107.522 104.631 108.512 103.657 108.512 102.444Z" fill="#FBF70F"/>
<path d="M112.957 108.984H108.534C107.302 108.984 106.312 109.958 106.312 111.171C106.312 112.383 107.302 113.358 108.534 113.358H112.957C114.189 113.358 115.179 112.383 115.179 111.171C115.179 109.958 114.189 108.984 112.957 108.984Z" fill="#FBF70F"/>
</svg>
