<svg width="123" height="34" viewBox="0 0 123 34" fill="none" xmlns="http://www.w3.org/2000/svg">
<path d="M0.421875 33V0.999999H8.15625V26.7187H21.4688V33H0.421875ZM54.4297 17C54.4297 20.5208 53.7526 23.5052 52.3984 25.9531C51.0443 28.401 49.2109 30.2604 46.8984 31.5312C44.5964 32.8021 42.013 33.4375 39.1484 33.4375C36.2734 33.4375 33.6849 32.7969 31.3828 31.5156C29.0807 30.2344 27.2526 28.375 25.8984 25.9375C24.5547 23.4896 23.8828 20.5104 23.8828 17C23.8828 13.4792 24.5547 10.4948 25.8984 8.04687C27.2526 5.59896 29.0807 3.73958 31.3828 2.46875C33.6849 1.19792 36.2734 0.562499 39.1484 0.562499C42.013 0.562499 44.5964 1.19792 46.8984 2.46875C49.2109 3.73958 51.0443 5.59896 52.3984 8.04687C53.7526 10.4948 54.4297 13.4792 54.4297 17ZM46.5234 17C46.5234 14.9167 46.2266 13.1562 45.6328 11.7187C45.0495 10.2812 44.2057 9.19271 43.1016 8.45312C42.0078 7.71354 40.6901 7.34375 39.1484 7.34375C37.6172 7.34375 36.2995 7.71354 35.1953 8.45312C34.0911 9.19271 33.2422 10.2812 32.6484 11.7187C32.0651 13.1562 31.7734 14.9167 31.7734 17C31.7734 19.0833 32.0651 20.8437 32.6484 22.2812C33.2422 23.7187 34.0911 24.8073 35.1953 25.5469C36.2995 26.2865 37.6172 26.6562 39.1484 26.6562C40.6901 26.6562 42.0078 26.2865 43.1016 25.5469C44.2057 24.8073 45.0495 23.7187 45.6328 22.2812C46.2266 20.8437 46.5234 19.0833 46.5234 17ZM79.9453 11.4531C79.7682 10.7969 79.5078 10.2187 79.1641 9.71875C78.8203 9.20833 78.3984 8.77604 77.8984 8.42188C77.3984 8.06771 76.8255 7.80208 76.1797 7.625C75.5339 7.4375 74.8255 7.34375 74.0547 7.34375C72.5026 7.34375 71.1589 7.71875 70.0234 8.46875C68.8984 9.21875 68.0286 10.3125 67.4141 11.75C66.7995 13.1771 66.4922 14.9115 66.4922 16.9531C66.4922 19.0052 66.7891 20.7552 67.3828 22.2031C67.9766 23.651 68.8359 24.7552 69.9609 25.5156C71.0859 26.276 72.4505 26.6562 74.0547 26.6562C75.4714 26.6562 76.6693 26.4271 77.6484 25.9687C78.638 25.5 79.388 24.8385 79.8984 23.9844C80.4089 23.1302 80.6641 22.125 80.6641 20.9688L82.1016 21.1406H74.3203V15.5H88.1172V19.7344C88.1172 22.599 87.5078 25.0521 86.2891 27.0938C85.0807 29.1354 83.4141 30.7031 81.2891 31.7969C79.1745 32.8906 76.7422 33.4375 73.9922 33.4375C70.9401 33.4375 68.2578 32.776 65.9453 31.4531C63.6328 30.1302 61.8307 28.2448 60.5391 25.7969C59.2474 23.3385 58.6016 20.4219 58.6016 17.0469C58.6016 14.4219 58.9922 12.0937 59.7734 10.0625C60.5547 8.02083 61.6432 6.29167 63.0391 4.875C64.4453 3.45833 66.0703 2.38542 67.9141 1.65625C69.7682 0.927082 71.763 0.562499 73.8984 0.562499C75.7526 0.562499 77.4766 0.828124 79.0703 1.35937C80.6745 1.89062 82.0911 2.64063 83.3203 3.60938C84.5599 4.57812 85.5651 5.72917 86.3359 7.0625C87.1068 8.39583 87.5859 9.85937 87.7734 11.4531H79.9453ZM122.879 17C122.879 20.5208 122.202 23.5052 120.848 25.9531C119.493 28.401 117.66 30.2604 115.348 31.5312C113.046 32.8021 110.462 33.4375 107.598 33.4375C104.723 33.4375 102.134 32.7969 99.832 31.5156C97.5299 30.2344 95.7018 28.375 94.3477 25.9375C93.0039 23.4896 92.332 20.5104 92.332 17C92.332 13.4792 93.0039 10.4948 94.3477 8.04687C95.7018 5.59896 97.5299 3.73958 99.832 2.46875C102.134 1.19792 104.723 0.562499 107.598 0.562499C110.462 0.562499 113.046 1.19792 115.348 2.46875C117.66 3.73958 119.493 5.59896 120.848 8.04687C122.202 10.4948 122.879 13.4792 122.879 17ZM114.973 17C114.973 14.9167 114.676 13.1562 114.082 11.7187C113.499 10.2812 112.655 9.19271 111.551 8.45312C110.457 7.71354 109.139 7.34375 107.598 7.34375C106.066 7.34375 104.749 7.71354 103.645 8.45312C102.54 9.19271 101.691 10.2812 101.098 11.7187C100.514 13.1562 100.223 14.9167 100.223 17C100.223 19.0833 100.514 20.8437 101.098 22.2812C101.691 23.7187 102.54 24.8073 103.645 25.5469C104.749 26.2865 106.066 26.6562 107.598 26.6562C109.139 26.6562 110.457 26.2865 111.551 25.5469C112.655 24.8073 113.499 23.7187 114.082 22.2812C114.676 20.8437 114.973 19.0833 114.973 17Z" fill="#FBF70F"/>
</svg>
